<?xml version="1.0" encoding="utf-8"?>
<!-- Generator: Adobe Illustrator 18.0.0, SVG Export Plug-In . SVG Version: 6.00 Build 0)  -->
<!DOCTYPE svg PUBLIC "-//W3C//DTD SVG 1.1//EN" "http://www.w3.org/Graphics/SVG/1.1/DTD/svg11.dtd">
<svg version="1.1" id="Layer_1" xmlns="http://www.w3.org/2000/svg" xmlns:xlink="http://www.w3.org/1999/xlink" x="0px" y="0px"
	 viewBox="0 0 657 361.3" enable-background="new 0 0 657 361.3" xml:space="preserve">
<g>
	<path opacity="0.3" fill="#2BB673" d="M657,0c-50.6,0-95.4,0-122.5,0c-76.9,0-147.8,72.4-199.4,132.4c-41.5,48.2-89.2,82.4-140,99
		c-67.6,22-143,28.5-194.9,30.1L0,261.6v99.7h656.9l0.1-99.8V0z"/>
	<path opacity="0.3" fill="#2BB673" d="M429.6,282.9c-24.9,28.9-53.6,49.5-84.1,59.4c-40.6,13.2-85.9,17.1-117.1,18.1H657V203.4
		c-43.5,0-85.5,0-107.6,0C503.2,203.4,460.7,246.9,429.6,282.9z"/>
	<path opacity="0.3" fill="#2BB673" d="M520.7,360c-50.5-2.5-117.1-9.8-177.5-29.4c-50.8-16.5-98.5-50.8-140-99
		C151.5,171.7,80.7,99.2,3.8,99.2c-1.2,0-2.5,0-3.8,0V360H520.7z"/>
</g>
</svg>
