<?xml version="1.0" encoding="utf-8"?>
<!-- Generator: Adobe Illustrator 16.0.3, SVG Export Plug-In . SVG Version: 6.00 Build 0)  -->
<!DOCTYPE svg PUBLIC "-//W3C//DTD SVG 1.1//EN" "http://www.w3.org/Graphics/SVG/1.1/DTD/svg11.dtd">
<svg version="1.1" id="Layer_1" xmlns="http://www.w3.org/2000/svg" xmlns:xlink="http://www.w3.org/1999/xlink" x="0px" y="0px"
	 width="128px" height="128px" viewBox="0 0 128 128" enable-background="new 0 0 128 128" xml:space="preserve">
<path fill="#217C96" d="M19.536,27.035l6.362,11.133c0.214,0.376,0.574,0.648,0.994,0.753l5.936,1.484l20.358,20.358l2.25-2.249
	L34.759,37.839c-0.204-0.205-0.458-0.349-0.738-0.419l-5.703-1.431L22.9,26.504l4.644-4.644l9.488,5.422l1.432,5.704
	c0.069,0.28,0.215,0.536,0.418,0.739l20.676,20.677l2.249-2.25L41.45,31.794l-1.484-5.933c-0.105-0.42-0.378-0.78-0.754-0.996
	l-11.134-6.362c-0.621-0.353-1.402-0.249-1.909,0.256l-6.362,6.362C19.297,25.626,19.186,26.408,19.536,27.035z"/>
<path fill="#217C96" d="M85.661,49.629L50.671,84.62l-2.25-2.249l34.991-34.99L85.661,49.629z"/>
<path fill="#217C96" d="M44.547,85.858c-0.288-0.479-0.805-0.771-1.364-0.771h-9.542c-0.558,0-1.076,0.293-1.363,0.771l-4.772,7.952
	c-0.303,0.504-0.303,1.134,0,1.639l4.772,7.951c0.287,0.479,0.805,0.771,1.363,0.771h9.542c0.559,0,1.076-0.293,1.364-0.771
	l4.771-7.951c0.303-0.505,0.303-1.135,0-1.639L44.547,85.858z M42.284,100.991h-7.743l-3.817-6.361l3.817-6.362h7.743l3.817,6.362
	L42.284,100.991z"/>
<path fill="#217C96" d="M95.669,56.458c10.505,0.036,19.05-8.452,19.085-18.957c0.005-1.599-0.191-3.191-0.584-4.741
	c-0.213-0.853-1.075-1.372-1.928-1.16c-0.28,0.07-0.535,0.215-0.74,0.418l-9.9,9.895l-7.855-2.618l-2.619-7.853l9.9-9.903
	c0.621-0.622,0.621-1.628-0.001-2.25c-0.205-0.205-0.462-0.35-0.745-0.419c-10.188-2.58-20.535,3.587-23.115,13.773
	c-0.393,1.545-0.588,3.134-0.582,4.729c0.004,1.252,0.133,2.501,0.387,3.727L42.138,75.931c-1.226-0.254-2.475-0.383-3.726-0.387
	c-10.541,0-19.086,8.545-19.086,19.086c0,10.54,8.545,19.085,19.086,19.085c10.541,0,19.085-8.545,19.085-19.085
	c-0.004-1.253-0.133-2.501-0.387-3.728l8.338-8.338l3.647,3.646c0.622,0.621,1.628,0.621,2.249,0l0.795-0.796
	c0.697-0.692,1.825-0.692,2.522,0c0.696,0.695,0.698,1.823,0.003,2.521c0,0-0.002,0.001-0.003,0.003l-0.795,0.795
	c-0.62,0.621-0.62,1.628,0,2.249l18.974,18.973c4.99,5.036,13.117,5.072,18.153,0.082c5.035-4.99,5.071-13.118,0.081-18.153
	c-0.026-0.027-0.054-0.055-0.081-0.083L92.021,72.828c-0.62-0.62-1.627-0.62-2.248,0l-0.795,0.796c-0.698,0.693-1.824,0.693-2.523,0
	c-0.695-0.694-0.697-1.823-0.003-2.519c0.001-0.002,0.003-0.002,0.003-0.004l0.796-0.795c0.621-0.621,0.621-1.629,0-2.25
	l-3.647-3.646l8.34-8.339C93.169,56.325,94.418,56.454,95.669,56.458z M101.918,110.534c-1.155-0.002-2.301-0.21-3.383-0.616
	l12.422-12.423c1.875,4.986-0.648,10.548-5.634,12.423C104.234,110.326,103.082,110.536,101.918,110.534z M83.9,69.197
	c-1.762,2.102-1.486,5.232,0.615,6.993c1.846,1.548,4.537,1.546,6.382-0.004l17.849,17.864c0.193,0.194,0.375,0.398,0.551,0.607
	l-13.6,13.599c-0.208-0.175-0.413-0.356-0.607-0.551L77.228,89.842c1.761-2.101,1.485-5.231-0.616-6.992
	c-1.846-1.549-4.537-1.547-6.383,0.004l-2.543-2.545l13.669-13.649L83.9,69.197z M90.322,53.201L54.242,89.274
	c-0.396,0.396-0.555,0.969-0.42,1.512c2.182,8.568-2.996,17.284-11.565,19.466s-17.285-2.996-19.467-11.565
	c-2.181-8.569,2.997-17.285,11.566-19.467c2.592-0.66,5.308-0.66,7.901,0c0.542,0.133,1.115-0.026,1.511-0.42L79.84,42.726
	c0.395-0.395,0.554-0.969,0.418-1.511c-2.168-8.469,2.941-17.091,11.41-19.259c1.601-0.409,3.256-0.566,4.904-0.463l-8.39,8.393
	c-0.426,0.425-0.575,1.056-0.385,1.627l3.181,9.543c0.158,0.474,0.531,0.847,1.007,1.005l9.544,3.181
	c0.57,0.19,1.2,0.042,1.626-0.384l8.39-8.39c0.02,0.304,0.029,0.604,0.029,0.903c0.045,8.739-7.004,15.86-15.742,15.905
	c-1.352,0.007-2.698-0.16-4.007-0.495c-0.542-0.135-1.116,0.023-1.512,0.418L90.322,53.201L90.322,53.201z"/>
<path fill="#217C96" d="M101.566,98.276l-2.249,2.249L83.413,84.621l2.249-2.25L101.566,98.276z"/>
</svg>
